<?xml version="1.0" encoding="utf-8"?>
<!-- Generator: Adobe Illustrator 24.1.3, SVG Export Plug-In . SVG Version: 6.00 Build 0)  -->
<svg version="1.1" id="Layer_1" xmlns="http://www.w3.org/2000/svg" xmlns:xlink="http://www.w3.org/1999/xlink" x="0px" y="0px"
	 viewBox="0 0 250 250" style="enable-background:new 0 0 250 250;" xml:space="preserve">
<style type="text/css">
	.st0{fill:none;stroke:#858C99;stroke-width:2;stroke-miterlimit:10;}
	.st1{fill:none;}
	.st2{enable-background:new    ;}
	.st3{fill:#E5E3DB;}
	.st4{fill:none;stroke:#FA504F;stroke-width:10;stroke-linecap:round;stroke-miterlimit:10;}
</style>
<g>
	<circle class="st0" cx="125" cy="125" r="120"/>
	<g>
		<rect x="16.1" y="92" class="st1" width="217.9" height="39.5"/>
		<g class="st2">
			<path class="st3" d="M64.8,131h-3V97.8l-10.2,4.4v-2.9L64.4,94h0.4V131z"/>
			<path class="st3" d="M104.2,103.5c0,1-0.2,1.9-0.5,2.8c-0.3,0.9-0.7,1.7-1.3,2.4c-0.5,0.7-1.2,1.4-1.9,1.9
				c-0.8,0.5-1.6,1-2.5,1.4c1,0.4,2,0.8,2.8,1.4c0.9,0.6,1.6,1.3,2.3,2s1.1,1.7,1.5,2.6s0.5,2,0.5,3.1c0,1.7-0.3,3.2-0.9,4.4
				c-0.6,1.3-1.5,2.4-2.6,3.2c-1.1,0.9-2.3,1.5-3.7,2s-2.9,0.7-4.5,0.7c-1.6,0-3.1-0.2-4.5-0.7c-1.4-0.4-2.7-1.1-3.8-2
				c-1.1-0.9-1.9-2-2.6-3.2c-0.6-1.3-0.9-2.8-0.9-4.4c0-1.1,0.2-2.2,0.5-3.1c0.3-1,0.8-1.8,1.5-2.6c0.6-0.8,1.4-1.4,2.2-2
				c0.9-0.6,1.8-1.1,2.8-1.4c-0.9-0.4-1.7-0.8-2.5-1.4s-1.4-1.2-1.9-1.9c-0.5-0.7-1-1.5-1.3-2.4c-0.3-0.9-0.4-1.8-0.4-2.8
				c0-1.6,0.3-3,0.8-4.2c0.5-1.2,1.3-2.3,2.3-3.1s2.1-1.5,3.4-2c1.3-0.5,2.7-0.7,4.2-0.7c1.5,0,2.9,0.2,4.3,0.7
				c1.3,0.5,2.5,1.1,3.5,2c1,0.9,1.8,1.9,2.3,3.1C103.9,100.5,104.2,101.9,104.2,103.5z M102.1,121.2c0-1.2-0.2-2.3-0.7-3.3
				c-0.5-1-1.1-1.8-1.9-2.5c-0.8-0.7-1.7-1.2-2.8-1.6c-1.1-0.4-2.2-0.5-3.3-0.5c-1.2,0-2.3,0.2-3.3,0.5c-1.1,0.4-2,0.9-2.8,1.6
				s-1.4,1.5-1.9,2.5c-0.5,1-0.7,2.1-0.7,3.3c0,1.3,0.2,2.4,0.7,3.3c0.5,1,1.1,1.8,1.9,2.4s1.7,1.1,2.8,1.5c1.1,0.3,2.2,0.5,3.4,0.5
				c1.2,0,2.3-0.2,3.3-0.5c1-0.3,2-0.8,2.8-1.5c0.8-0.7,1.4-1.5,1.9-2.4C101.9,123.5,102.1,122.4,102.1,121.2z M101.2,103.5
				c0-1.1-0.2-2.1-0.6-3c-0.4-0.9-1-1.7-1.7-2.3c-0.7-0.7-1.6-1.2-2.5-1.5c-0.9-0.4-1.9-0.5-3-0.5c-1.1,0-2.1,0.2-3,0.5
				c-0.9,0.3-1.7,0.8-2.5,1.5c-0.7,0.6-1.3,1.4-1.7,2.3c-0.4,0.9-0.6,2-0.6,3.1s0.2,2.1,0.6,3c0.4,0.9,1,1.6,1.7,2.3
				c0.7,0.6,1.5,1.1,2.5,1.4s1.9,0.5,3,0.5c1,0,2-0.2,3-0.5s1.8-0.8,2.5-1.4s1.3-1.4,1.7-2.3C101,105.6,101.2,104.6,101.2,103.5z"/>
			<path class="st3" d="M123.5,106.6c0-0.7,0.2-1.3,0.7-1.8c0.5-0.5,1.1-0.7,1.9-0.7c0.8,0,1.5,0.3,1.9,0.7s0.7,1.1,0.7,1.8
				s-0.2,1.3-0.7,1.8s-1.1,0.7-1.9,0.7c-0.8,0-1.4-0.2-1.9-0.7C123.7,107.9,123.5,107.3,123.5,106.6z M123.5,128.8
				c0-0.7,0.2-1.3,0.7-1.8c0.5-0.5,1.1-0.7,1.9-0.7c0.8,0,1.5,0.3,1.9,0.7s0.7,1.1,0.7,1.8s-0.2,1.3-0.7,1.8s-1.1,0.7-1.9,0.7
				c-0.8,0-1.4-0.2-1.9-0.7C123.7,130.1,123.5,129.5,123.5,128.8z"/>
			<path class="st3" d="M166,131h-23.2v-2.3l12.1-13.7c0.9-1,1.7-2,2.5-2.9s1.4-1.8,2-2.8s1-1.8,1.3-2.7s0.5-1.9,0.5-2.8
				c0-1.1-0.2-2.1-0.6-3.1s-0.9-1.7-1.6-2.4s-1.5-1.2-2.5-1.6s-2-0.6-3.2-0.6c-1.3,0-2.5,0.2-3.5,0.7s-1.9,1-2.6,1.8
				s-1.2,1.7-1.6,2.7s-0.6,2.2-0.6,3.4h-3c0-1.5,0.3-3,0.8-4.3s1.3-2.5,2.3-3.6s2.2-1.8,3.5-2.4s2.9-0.9,4.7-0.9
				c1.6,0,3.1,0.2,4.4,0.7s2.5,1.2,3.4,2.1s1.7,2,2.2,3.2s0.8,2.6,0.8,4.1c0,1.2-0.2,2.4-0.6,3.6s-1,2.3-1.7,3.4s-1.5,2.2-2.3,3.2
				s-1.7,2-2.6,3l-10.3,11.7H166V131z"/>
			<path class="st3" d="M197.3,131h-23.2v-2.3l12.1-13.7c0.9-1,1.7-2,2.5-2.9s1.4-1.8,2-2.8s1-1.8,1.3-2.7s0.5-1.9,0.5-2.8
				c0-1.1-0.2-2.1-0.6-3.1s-0.9-1.7-1.6-2.4s-1.5-1.2-2.5-1.6s-2-0.6-3.2-0.6c-1.3,0-2.5,0.2-3.5,0.7s-1.9,1-2.6,1.8
				s-1.2,1.7-1.6,2.7s-0.6,2.2-0.6,3.4h-3c0-1.5,0.3-3,0.8-4.3s1.3-2.5,2.3-3.6s2.2-1.8,3.5-2.4s2.9-0.9,4.7-0.9
				c1.6,0,3.1,0.2,4.4,0.7s2.5,1.2,3.4,2.1s1.7,2,2.2,3.2s0.8,2.6,0.8,4.1c0,1.2-0.2,2.4-0.6,3.6s-1,2.3-1.7,3.4s-1.5,2.2-2.3,3.2
				s-1.7,2-2.6,3l-10.3,11.7h19.4V131z"/>
		</g>
	</g>
	<g>
		<rect x="44.5" y="163.1" class="st1" width="160.9" height="19.4"/>
		<g class="st2">
			<path class="st3" d="M98.6,164.9v4.5h5.3v1.4h-5.3v5.5h-1.7v-12.9h7.9v1.4H98.6z"/>
			<path class="st3" d="M118.9,169.9c0,1-0.2,1.9-0.5,2.7c-0.3,0.8-0.7,1.5-1.3,2.1s-1.2,1-2,1.4c-0.8,0.3-1.6,0.5-2.6,0.5
				c-0.9,0-1.8-0.2-2.6-0.5c-0.8-0.3-1.4-0.8-2-1.4s-1-1.3-1.3-2.1c-0.3-0.8-0.5-1.7-0.5-2.7c0-1,0.2-1.9,0.5-2.7
				c0.3-0.8,0.7-1.5,1.3-2.1s1.2-1,2-1.4c0.8-0.3,1.6-0.5,2.6-0.5c0.9,0,1.8,0.2,2.6,0.5c0.8,0.3,1.5,0.8,2,1.4s1,1.3,1.3,2.1
				S118.9,168.9,118.9,169.9z M117.1,169.9c0-0.8-0.1-1.5-0.3-2.1c-0.2-0.6-0.5-1.2-0.9-1.6c-0.4-0.4-0.9-0.8-1.4-1
				c-0.6-0.2-1.2-0.4-1.9-0.4c-0.7,0-1.3,0.1-1.9,0.4c-0.6,0.2-1,0.6-1.4,1c-0.4,0.4-0.7,1-0.9,1.6c-0.2,0.6-0.3,1.3-0.3,2.1
				s0.1,1.5,0.3,2.1c0.2,0.6,0.5,1.2,0.9,1.6c0.4,0.4,0.9,0.8,1.4,1c0.6,0.2,1.2,0.3,1.9,0.3c0.7,0,1.3-0.1,1.9-0.3
				c0.6-0.2,1-0.6,1.4-1c0.4-0.4,0.7-1,0.9-1.6C117,171.4,117.1,170.7,117.1,169.9z"/>
			<path class="st3" d="M130.4,173.7c0.1,0,0.2,0,0.3,0.1l0.7,0.7c-0.5,0.6-1.2,1.1-1.9,1.4s-1.7,0.5-2.7,0.5
				c-0.9,0-1.8-0.2-2.5-0.5c-0.8-0.3-1.4-0.8-1.9-1.3c-0.5-0.6-0.9-1.3-1.2-2.1c-0.3-0.8-0.4-1.7-0.4-2.7c0-1,0.2-1.9,0.5-2.7
				c0.3-0.8,0.7-1.5,1.3-2.1s1.2-1,2-1.4s1.6-0.5,2.6-0.5c0.9,0,1.7,0.1,2.4,0.4c0.7,0.3,1.3,0.7,1.9,1.2l-0.6,0.8
				c0,0.1-0.1,0.1-0.1,0.1c-0.1,0-0.1,0.1-0.2,0.1c-0.1,0-0.2-0.1-0.4-0.2s-0.4-0.2-0.6-0.4c-0.3-0.1-0.6-0.3-0.9-0.4
				c-0.4-0.1-0.8-0.2-1.4-0.2c-0.7,0-1.3,0.1-1.8,0.3c-0.6,0.2-1,0.6-1.4,1c-0.4,0.4-0.7,1-0.9,1.6c-0.2,0.6-0.3,1.3-0.3,2.1
				c0,0.8,0.1,1.5,0.3,2.2s0.5,1.2,0.9,1.6c0.4,0.4,0.9,0.8,1.4,1c0.5,0.2,1.1,0.3,1.8,0.3c0.4,0,0.7,0,1-0.1s0.6-0.1,0.9-0.2
				c0.3-0.1,0.5-0.2,0.7-0.4c0.2-0.1,0.4-0.3,0.7-0.5C130.2,173.7,130.3,173.7,130.4,173.7z"/>
			<path class="st3" d="M138.4,175c0.5,0,1-0.1,1.4-0.3c0.4-0.2,0.8-0.4,1.1-0.8s0.5-0.7,0.7-1.2s0.2-0.9,0.2-1.5v-7.8h1.7v7.8
				c0,0.7-0.1,1.4-0.4,2.1c-0.2,0.6-0.6,1.2-1,1.7c-0.4,0.5-1,0.8-1.6,1.1s-1.3,0.4-2.1,0.4s-1.5-0.1-2.1-0.4s-1.2-0.6-1.6-1.1
				c-0.4-0.5-0.8-1-1-1.7c-0.2-0.6-0.4-1.3-0.4-2.1v-7.8h1.7v7.8c0,0.5,0.1,1,0.2,1.5s0.4,0.8,0.7,1.2s0.6,0.6,1.1,0.8
				C137.4,174.9,137.8,175,138.4,175z"/>
			<path class="st3" d="M153.2,165.5c-0.1,0.1-0.1,0.2-0.2,0.2c-0.1,0-0.1,0.1-0.2,0.1c-0.1,0-0.2-0.1-0.4-0.2
				c-0.1-0.1-0.3-0.2-0.5-0.3s-0.5-0.2-0.7-0.3c-0.3-0.1-0.6-0.2-1.1-0.2c-0.4,0-0.7,0.1-1,0.2c-0.3,0.1-0.5,0.2-0.7,0.4
				s-0.4,0.4-0.5,0.6c-0.1,0.2-0.2,0.5-0.2,0.8c0,0.4,0.1,0.7,0.3,0.9c0.2,0.2,0.4,0.4,0.7,0.6s0.6,0.3,1,0.4s0.7,0.3,1.1,0.4
				c0.4,0.1,0.8,0.3,1.1,0.4s0.7,0.4,1,0.6s0.5,0.6,0.7,0.9c0.2,0.4,0.3,0.8,0.3,1.3c0,0.6-0.1,1.1-0.3,1.6
				c-0.2,0.5-0.5,0.9-0.8,1.3c-0.4,0.4-0.8,0.7-1.4,0.9s-1.1,0.3-1.8,0.3c-0.8,0-1.6-0.2-2.3-0.5c-0.7-0.3-1.3-0.7-1.8-1.2l0.5-0.8
				c0-0.1,0.1-0.1,0.2-0.2c0.1,0,0.1-0.1,0.2-0.1c0.1,0,0.2,0,0.3,0.1c0.1,0.1,0.2,0.1,0.3,0.2c0.1,0.1,0.3,0.2,0.4,0.3
				s0.3,0.2,0.6,0.3c0.2,0.1,0.4,0.2,0.7,0.2c0.3,0.1,0.6,0.1,0.9,0.1c0.4,0,0.8-0.1,1.1-0.2c0.3-0.1,0.6-0.3,0.8-0.5
				c0.2-0.2,0.4-0.5,0.5-0.7c0.1-0.3,0.2-0.6,0.2-1c0-0.4-0.1-0.7-0.3-1s-0.4-0.5-0.7-0.6s-0.6-0.3-1-0.4c-0.4-0.1-0.8-0.2-1.1-0.4
				s-0.8-0.3-1.1-0.4c-0.4-0.2-0.7-0.4-1-0.6s-0.5-0.6-0.7-1c-0.2-0.4-0.3-0.9-0.3-1.4c0-0.5,0.1-0.9,0.3-1.3
				c0.2-0.4,0.4-0.8,0.8-1.1s0.8-0.6,1.3-0.8s1.1-0.3,1.7-0.3c0.7,0,1.4,0.1,2,0.3c0.6,0.2,1.1,0.6,1.6,1L153.2,165.5z"/>
		</g>
	</g>
	<path class="st4" d="M125,5c66.3,0,120,53.7,120,120s-53.7,120-120,120S5,191.3,5,125c0-21.6,5.7-41.9,15.7-59.4"/>
</g>
</svg>
